<?xml version="1.0" encoding="UTF-8" standalone="no"?>
<!-- Created with Inkscape (http://www.inkscape.org/) -->

<svg
   version="1.1"
   id="svg84389"
   width="200"
   height="200"
   viewBox="0 0 200.00001 200.00001"
   sodipodi:docname="Task4HomeSmall.svg"
   inkscape:version="1.2 (dc2aedaf03, 2022-05-15)"
   xmlns:inkscape="http://www.inkscape.org/namespaces/inkscape"
   xmlns:sodipodi="http://sodipodi.sourceforge.net/DTD/sodipodi-0.dtd"
   xmlns="http://www.w3.org/2000/svg"
   xmlns:svg="http://www.w3.org/2000/svg">
  <defs
     id="defs84393">
    <rect
       x="329.50693"
       y="1061.9258"
       width="430.64273"
       height="106.02947"
       id="rect84930" />
    <clipPath
       clipPathUnits="userSpaceOnUse"
       id="clipPath84407">
      <path
         d="M 0,1024 H 1024 V 0 H 0 Z"
         id="path84405" />
    </clipPath>
    <clipPath
       clipPathUnits="userSpaceOnUse"
       id="clipPath84627">
      <path
         d="M 181,395 H 671 V 849.999 H 181 Z"
         id="path84625" />
    </clipPath>
    <clipPath
       clipPathUnits="userSpaceOnUse"
       id="clipPath141176">
      <path
         d="M 0,900 H 900 V 0 H 0 Z"
         id="path141174" />
    </clipPath>
    <clipPath
       clipPathUnits="userSpaceOnUse"
       id="clipPath141184">
      <path
         d="M 302.373,625.813 H 597.627 V 355.625 H 302.373 Z"
         id="path141182" />
    </clipPath>
    <linearGradient
       x1="0"
       y1="0"
       x2="1"
       y2="0"
       gradientUnits="userSpaceOnUse"
       gradientTransform="matrix(-1.18e-5,270.1875,270.1875,1.18e-5,450.00049,355.625)"
       spreadMethod="pad"
       id="linearGradient141194">
      <stop
         style="stop-opacity:1;stop-color:#231f20"
         offset="0"
         id="stop141190" />
      <stop
         style="stop-opacity:1;stop-color:#ffffff"
         offset="1"
         id="stop141192" />
    </linearGradient>
  </defs>
  <sodipodi:namedview
     id="namedview84391"
     pagecolor="#ffffff"
     bordercolor="#000000"
     borderopacity="0.25"
     inkscape:showpageshadow="2"
     inkscape:pageopacity="0.0"
     inkscape:pagecheckerboard="0"
     inkscape:deskcolor="#d1d1d1"
     showgrid="false"
     inkscape:lockguides="false"
     inkscape:zoom="1.733931"
     inkscape:cx="189.16555"
     inkscape:cy="183.39831"
     inkscape:window-width="1920"
     inkscape:window-height="1017"
     inkscape:window-x="-8"
     inkscape:window-y="-8"
     inkscape:window-maximized="1"
     inkscape:current-layer="g84397">
    <inkscape:page
       x="0"
       y="0"
       id="page84395"
       width="200.00002"
       height="200.00002"
       inkscape:export-filename="Página 1.png"
       inkscape:export-xdpi="96"
       inkscape:export-ydpi="96" />
  </sodipodi:namedview>
  <g
     id="g84397"
     inkscape:groupmode="layer"
     inkscape:label="Page 1"
     transform="matrix(1.3333333,0,0,-1.3333333,0,1365.3333)">
    <g
       id="g84401"
       transform="matrix(0.20248491,0,0,0.20248491,-29.573975,824.51797)">
      <g
         id="g84403"
         clip-path="url(#clipPath84407)"
         style="display:inline">
        <g
           id="g84409"
           transform="translate(317.124,30.3711)" />
        <g
           id="g84413"
           transform="translate(342.9478,36.2119)" />
        <g
           id="g84417"
           transform="translate(353.2466,38.3467)" />
        <g
           id="g84423"
           transform="translate(372.1362,29.7412)" />
        <g
           id="g84427"
           transform="translate(385.0264,39.6387)" />
        <g
           id="g84431"
           transform="translate(412.522,29.7412)" />
        <g
           id="g84435"
           transform="translate(419.9268,41.4648)" />
        <g
           id="g84439"
           transform="translate(452.9468,44.71)" />
        <g
           id="g84449"
           transform="translate(494.166,50.4268)" />
        <g
           id="g84453"
           transform="translate(498.2031,39.2627)" />
        <g
           id="g84457"
           transform="translate(514.9258,36.2119)" />
        <g
           id="g84461"
           transform="translate(529.0879,36.2119)" />
        <g
           id="g84467"
           transform="translate(549.4229,29.7412)" />
        <g
           id="g84471"
           transform="translate(561.083,34.6396)" />
        <g
           id="g84479"
           transform="translate(598.8135,39.6387)" />
        <g
           id="g84485"
           transform="translate(619.209,34.6396)" />
        <g
           id="g84489"
           transform="translate(639.3428,29.7412)" />
        <g
           id="g84493"
           transform="translate(655.4785,29.7412)" />
        <g
           id="g84497"
           transform="translate(669.8398,29.1025)" />
        <g
           id="g84501"
           transform="translate(684.1143,37.6055)" />
        <g
           id="g84505"
           transform="translate(688.3262,34.6396)" />
        <g
           id="g84509"
           transform="translate(705.126,39.752)" />
        <g
           id="g84513"
           transform="translate(855.0205,899.0059)">
          <path
             d="M 0,0 H -23.098 C -30.912,0 -37.31,-6.397 -37.31,-14.213 v -23.099 c 0,-7.817 6.398,-14.208 14.212,-14.208 H 0 c 7.819,0 14.217,6.391 14.217,14.208 v 23.099 C 14.217,-6.397 7.819,0 0,0"
             style="fill:#3ea9e0;fill-opacity:1;fill-rule:nonzero;stroke:none"
             id="path84515" />
        </g>
        <g
           id="g84517"
           transform="translate(788.793,947)">
          <path
             d="m 0,0 h -16.323 c -5.525,0 -10.048,-4.516 -10.048,-10.045 v -16.324 c 0,-5.524 4.523,-10.048 10.048,-10.048 H 0 c 5.536,0 10.054,4.524 10.054,10.048 v 16.324 C 10.054,-4.516 5.536,0 0,0"
             style="fill:#3ea9e0;fill-opacity:1;fill-rule:nonzero;stroke:none"
             id="path84519" />
        </g>
        <g
           id="g84521"
           transform="translate(816.4863,833.4717)">
          <path
             d="m 0,0 h -11.55 c -3.906,0 -7.101,-3.196 -7.101,-7.105 v -11.549 c 0,-3.908 3.195,-7.104 7.101,-7.104 H 0 c 3.906,0 7.107,3.196 7.107,7.104 V -7.105 C 7.107,-3.196 3.906,0 0,0"
             style="fill:#3ea9e0;fill-opacity:1;fill-rule:nonzero;stroke:none"
             id="path84523" />
        </g>
        <g
           id="g84525"
           transform="translate(652.0752,877.9258)">
          <path
             d="m 0,0 h 8.359 c 2.834,0 5.152,2.317 5.152,5.146 v 8.365 c 0,2.828 -2.318,5.146 -5.152,5.146 H 0 c -2.829,0 -5.146,-2.318 -5.146,-5.146 V 5.146 C -5.146,2.317 -2.829,0 0,0"
             style="fill:#3ea9e0;fill-opacity:1;fill-rule:nonzero;stroke:none"
             id="path84527" />
        </g>
        <g
           id="g141170"
           transform="matrix(0.24215663,0,0,0.24215663,620.85075,706.68673)"
           style="fill:#00ffff;fill-opacity:1">
          <g
             id="g141172"
             clip-path="url(#clipPath141176)"
             style="fill:#00ffff;fill-opacity:1">
            <g
               id="g141178"
               style="fill:#00ffff;fill-opacity:1">
              <g
                 id="g141180"
                 style="fill:#00ffff;fill-opacity:1" />
            </g>
          </g>
        </g>
        <g
           id="g84529"
           transform="translate(749.5361,885.2432)">
          <path
             d="M 0,0 H -39.126 C -59.695,0 -76.43,-16.734 -76.43,-37.312 v -8.975 -29.087 -1.059 -12.435 -5.952 -18.849 -19.441 -3.73 -27.68 -1.4 c -0.027,0 -0.049,0.005 -0.072,0.005 -0.727,-12.082 -10.766,-21.694 -23.025,-21.694 h -63.529 c -26.451,0 -47.965,-21.523 -47.965,-47.972 v -175.894 c 0,-12.732 -10.366,-23.1 -23.098,-23.1 h -53.465 c -12.73,0 -23.092,10.368 -23.092,23.1 v 175.894 c 0,26.449 -21.523,47.972 -47.972,47.972 h -64.156 c -12.733,0 -23.095,10.359 -23.095,23.089 v 27.68 c 0,12.736 10.362,23.098 23.095,23.098 h 299.318 c 0.01,0.028 0.032,0.045 0.044,0.073 h 30.095 v 24.401 0.4 h -6.18 -24.96 -298.317 c -26.446,0 -47.968,-21.522 -47.968,-47.972 v -27.68 c 0,-26.449 21.522,-47.963 47.968,-47.963 h 64.156 c 12.735,0 23.095,-10.363 23.095,-23.098 v -175.894 c 0,-26.452 21.525,-47.968 47.969,-47.968 h 53.465 c 26.449,0 47.972,21.516 47.972,47.968 v 175.894 c 0,12.735 10.356,23.098 23.091,23.098 h 63.529 c 25.548,0 46.434,20.091 47.835,45.298 h 0.055 v 1.164 c 0.023,0.501 0.078,0.996 0.078,1.501 v 27.68 c 0,0.506 -0.055,1.001 -0.078,1.509 v 21.662 h 0.078 v 2.108 22.693 h -0.078 v 42.269 c 0.029,0.006 0.056,0.014 0.078,0.014 v 9.273 c 0,6.864 5.58,12.438 12.433,12.438 H 0 c 6.858,0 12.438,-5.574 12.438,-12.438 v -39.121 c 0,-6.855 -5.58,-12.435 -12.438,-12.435 h -3.585 -31.056 v -24.801 h 30.879 c 0.005,-0.023 0.016,-0.051 0.016,-0.073 H 0 c 20.575,0 37.31,16.74 37.31,37.309 v 39.121 C 37.31,-16.734 20.575,0 0,0"
             style="fill:#3ea9e0;fill-opacity:1;fill-rule:nonzero;stroke:none"
             id="path84531" />
        </g>
        <g
           id="g84573"
           transform="translate(301.5835,234.3945)" />
        <g
           id="g84577"
           transform="translate(354.6943,281.248)" />
        <g
           id="g84581"
           transform="translate(398.9092,265.0771)" />
        <g
           id="g84585"
           transform="translate(429.667,257.0488)" />
        <g
           id="g84589"
           transform="translate(472.0728,260.9687)" />
        <g
           id="g84593"
           transform="translate(504.3389,266.4346)" />
        <g
           id="g84597"
           transform="translate(536.0771,234.3945)" />
        <g
           id="g84601"
           transform="translate(553.1523,234.3945)" />
        <g
           id="g84605"
           transform="translate(588.8486,268.0928)" />
        <g
           id="g84609"
           transform="translate(617.1943,260.2529)" />
        <g
           id="g84613"
           transform="translate(660.5811,260.9687)" />
        <g
           id="g84617"
           transform="translate(690.585,268.0928)" />
        <text
           xml:space="preserve"
           transform="matrix(0.75000002,0,0,-0.75000002,-59.947425,1131.6606)"
           id="text84928"
           style="font-style:normal;font-variant:normal;font-weight:normal;font-stretch:normal;font-size:240px;line-height:0;font-family:'Agency FB';-inkscape-font-specification:'Agency FB';white-space:pre;shape-inside:url(#rect84930);shape-padding:13.0498;display:inline;fill:#25599e;fill-opacity:1"><tspan
             x="342.55664"
             y="1149.1835"
             id="tspan595">Task</tspan></text>
        <text
           xml:space="preserve"
           style="font-style:normal;font-variant:normal;font-weight:normal;font-stretch:normal;font-size:180px;font-family:'Agency FB';-inkscape-font-specification:'Agency FB';fill:#3ea9e0;fill-opacity:1;stroke-width:0.75"
           x="489.36676"
           y="-269.15176"
           id="text87737"
           transform="scale(1,-1)"><tspan
             sodipodi:role="line"
             id="tspan87735"
             style="fill:#3ea9e0;fill-opacity:1;stroke-width:0.75"
             x="489.36676"
             y="-269.15176">Home</tspan></text>
        <text
           xml:space="preserve"
           style="font-style:normal;font-variant:normal;font-weight:normal;font-stretch:normal;font-size:200.754px;font-family:'Agency FB';-inkscape-font-specification:'Agency FB';fill:#00ffff;fill-opacity:1;stroke-width:0.836473"
           x="415.5726"
           y="-284.70676"
           id="text87612"
           transform="scale(1.0769803,-0.9285221)"><tspan
             sodipodi:role="line"
             id="tspan87610"
             style="fill:#00ffff;fill-opacity:1;stroke-width:0.836473"
             x="415.5726"
             y="-284.70676">4</tspan></text>
        <rect
           style="fill:#00ffff;fill-opacity:1;stroke-width:0.75"
           id="rect91540"
           width="13.974"
           height="43.329002"
           x="498.65439"
           y="-406.79868"
           transform="scale(1,-1)" />
        <rect
           style="fill:#00ffff;fill-opacity:1;stroke-width:0.75"
           id="rect91542"
           width="0.21627159"
           height="3.8928885"
           x="502.97989"
           y="-375.2316"
           transform="scale(1,-1)" />
      </g>
    </g>
    <g
       id="g84621"
       transform="matrix(0.20248491,0,0,0.20248491,-29.573975,824.51797)">
      <g
         id="g84623"
         clip-path="url(#clipPath84627)">
        <g
           id="g84629"
           transform="translate(751.5361,886.2432)">
          <path
             d="M 0,0 H -39.126 C -59.695,0 -76.43,-16.734 -76.43,-37.312 v -8.975 -29.087 -1.059 -12.435 -5.952 -18.849 -19.441 -3.73 -27.68 -1.4 c -0.027,0 -0.049,0.005 -0.072,0.005 -0.727,-12.082 -10.766,-21.694 -23.025,-21.694 h -63.529 c -26.451,0 -47.965,-21.523 -47.965,-47.972 v -175.894 c 0,-12.732 -10.366,-23.1 -23.098,-23.1 h -53.465 c -12.73,0 -23.092,10.368 -23.092,23.1 v 175.894 c 0,26.449 -21.523,47.972 -47.972,47.972 h -64.156 c -12.733,0 -23.095,10.359 -23.095,23.089 v 27.68 c 0,12.736 10.362,23.098 23.095,23.098 h 299.318 c 0.01,0.028 0.032,0.045 0.044,0.073 h 30.095 v 24.401 0.4 h -6.18 -24.96 -298.317 c -26.446,0 -47.968,-21.522 -47.968,-47.972 v -27.68 c 0,-26.449 21.522,-47.963 47.968,-47.963 h 64.156 c 12.735,0 23.095,-10.363 23.095,-23.098 v -175.894 c 0,-26.452 21.525,-47.968 47.969,-47.968 h 53.465 c 26.449,0 47.972,21.516 47.972,47.968 v 175.894 c 0,12.735 10.356,23.098 23.091,23.098 h 63.529 c 25.548,0 46.434,20.091 47.835,45.298 h 0.055 v 1.164 c 0.023,0.501 0.078,0.996 0.078,1.501 v 27.68 c 0,0.506 -0.055,1.001 -0.078,1.509 v 21.662 h 0.078 v 2.108 22.693 h -0.078 v 42.269 c 0.029,0.006 0.056,0.014 0.078,0.014 v 9.273 c 0,6.864 5.58,12.438 12.433,12.438 H 0 c 6.858,0 12.438,-5.574 12.438,-12.438 v -39.121 c 0,-6.855 -5.58,-12.435 -12.438,-12.435 h -3.585 -31.056 v -24.801 h 30.879 c 0.005,-0.023 0.016,-0.051 0.016,-0.073 H 0 c 20.575,0 37.31,16.74 37.31,37.309 v 39.121 C 37.31,-16.734 20.575,0 0,0"
             style="fill:#25599e;fill-opacity:1;fill-rule:nonzero;stroke:none"
             id="path84631" />
        </g>
      </g>
    </g>
  </g>
</svg>
